<?xml version="1.0" encoding="utf-8"?>
<!-- Generator: Adobe Illustrator 26.5.2, SVG Export Plug-In . SVG Version: 6.00 Build 0)  -->
<svg version="1.1" id="レイヤー_1" xmlns="http://www.w3.org/2000/svg" xmlns:xlink="http://www.w3.org/1999/xlink" x="0px"
	 y="0px" viewBox="0 0 260 260" style="enable-background:new 0 0 260 260;" xml:space="preserve">
<style type="text/css">
	.st0{fill:#FCEE21;stroke:#FCEE21;stroke-width:3;stroke-miterlimit:10;}
	.st1{opacity:0.75;stroke:#FCEE21;stroke-width:3;stroke-miterlimit:10;}
</style>
<path class="st0" d="M135.37,41.15c-4.94,0-9.79,0.37-14.52,1.06c39.26,6.14,69.22,38.53,69.22,77.59
	c0,43.44-37.05,78.65-82.75,78.65c-17.2,0-33.17-4.99-46.41-13.53c17.18,21.19,44.13,34.86,74.46,34.86
	c51.9,0,93.97-39.99,93.97-89.32S187.27,41.15,135.37,41.15z"/>
<path class="st1" d="M199.41,181.65c0,13.87-11.23,25.1-25.1,25.1c-8.78,0-16.5-4.49-20.96-11.33
	c-3.33,6.71-10.26,11.33-18.26,11.33c-6.75,0-12.74-3.26-16.41-8.31c-3.98,8.63-12.71,14.59-22.81,14.59
	c-9.13,0-17.13-4.86-21.52-12.17c-4.36,3.67-9.98,5.9-16.13,5.9c-13.87,0-25.1-11.23-25.1-25.1c0-1.98,0.22-3.92,0.66-5.77
	c-2.42-4.33-3.8-9.32-3.8-14.62c0-16.47,13.33-29.81,29.81-29.81c1.22,0,2.42,0.06,3.58,0.22c4.3-11.14,15.12-19.04,27.8-19.04
	c5.58,0,10.79,1.54,15.28,4.17c5.65-10.01,16.35-16.72,28.64-16.72c15.72,0,28.86,11.01,32.16,25.76c1.76-0.44,3.61-0.66,5.49-0.66
	c12.99,0,23.53,10.54,23.53,23.53c0,5.46-1.85,10.45-4.99,14.43C196.27,167.75,199.41,174.34,199.41,181.65z"/>
</svg>
